HIERARCHY
ROOT Pelvis
{
	OFFSET 0.000000 0.000000 0.000000
	CHANNELS 6 Xposition Yposition Zposition Zrotation Yrotation Xrotation 
	JOINT Left_hip
	{
		OFFSET 0.076090 -0.089427 -0.010735
		CHANNELS 3 Zrotation Yrotation Xrotation
		JOINT Left_knee
		{
			OFFSET 0.030200 -0.359518 -0.003501
			CHANNELS 3 Zrotation Yrotation Xrotation
			JOINT Left_ankle
			{
				OFFSET -0.011005 -0.371022 -0.045888
				CHANNELS 3 Zrotation Yrotation Xrotation
				JOINT Left_foot
				{
					OFFSET 0.023930 -0.052103 0.111084
					CHANNELS 3 Zrotation Yrotation Xrotation
					End Site
					{
						OFFSET 0.000000 0.000000 0.000000
					}
				}
			}
		}
	}
	JOINT Right_hip
	{
		OFFSET -0.073836 -0.088112 -0.007709
		CHANNELS 3 Zrotation Yrotation Xrotation
		JOINT Right_knee
		{
			OFFSET -0.035715 -0.367809 -0.006536
			CHANNELS 3 Zrotation Yrotation Xrotation
			JOINT Right_ankle
			{
				OFFSET 0.013718 -0.371958 -0.043815
				CHANNELS 3 Zrotation Yrotation Xrotation
				JOINT Right_foot
				{
					OFFSET -0.021936 -0.046387 0.114542
					CHANNELS 3 Zrotation Yrotation Xrotation
					End Site
					{
						OFFSET 0.000000 0.000000 0.000000
					}
				}
			}
		}
	}
	JOINT Spine1
	{
		OFFSET -0.001865 0.102064 -0.019455
		CHANNELS 3 Zrotation Yrotation Xrotation
		JOINT Spine2
		{
			OFFSET 0.003082 0.129260 -0.001938
			CHANNELS 3 Zrotation Yrotation Xrotation
			JOINT Spine3
			{
				OFFSET 0.001104 0.048093 0.026561
				CHANNELS 3 Zrotation Yrotation Xrotation
				JOINT Neck
				{
					OFFSET -0.002010 0.204222 -0.047183
					CHANNELS 3 Zrotation Yrotation Xrotation
					JOINT Head
					{
						OFFSET 0.005050 0.063649 0.048489
						CHANNELS 3 Zrotation Yrotation Xrotation
						End Site
						{
							OFFSET 0.000000 0.000000 0.000000
						}
					}
				}
				JOINT Left_collar
				{
					OFFSET 0.072979 0.114065 -0.031633
					CHANNELS 3 Zrotation Yrotation Xrotation
					JOINT Left_shoulder
					{
						OFFSET 0.083419 0.032092 -0.006530
						CHANNELS 3 Zrotation Yrotation Xrotation
						JOINT Left_elbow
						{
							OFFSET 0.239393 -0.012014 -0.025060
							CHANNELS 3 Zrotation Yrotation Xrotation
							JOINT Left_wrist
							{
								OFFSET 0.227297 0.008116 0.000384
								CHANNELS 3 Zrotation Yrotation Xrotation
								JOINT Left_palm
								{
									OFFSET 0.074607 -0.009248 -0.012277
									CHANNELS 3 Zrotation Yrotation Xrotation
									End Site
									{
										OFFSET 0.000000 0.000000 0.000000
									}
								}
							}
						}
					}
				}
				JOINT Right_collar
				{
					OFFSET -0.074980 0.111880 -0.037894
					CHANNELS 3 Zrotation Yrotation Xrotation
					JOINT Right_shoulder
					{
						OFFSET -0.087565 0.034353 -0.009323
						CHANNELS 3 Zrotation Yrotation Xrotation
						JOINT Right_elbow
						{
							OFFSET -0.236838 -0.013719 -0.019794
							CHANNELS 3 Zrotation Yrotation Xrotation
							JOINT Right_wrist
							{
								OFFSET -0.235053 0.006433 -0.003853
								CHANNELS 3 Zrotation Yrotation Xrotation
								JOINT Right_palm
								{
									OFFSET -0.075499 -0.006894 -0.009792
									CHANNELS 3 Zrotation Yrotation Xrotation
									End Site
									{
										OFFSET 0.000000 0.000000 0.000000
									}
								}
							}
						}
					}
				}
			}
		}
	}
}
MOTION
Frames: 6
Frame Time: 0.100000
0.000000 0.000000 0.000000 175.045388 25.144432 -14.415379 3.097122 0.387254 7.657369 -3.063943 -8.330261 -7.180667 -1.413535 6.013202 -1.879349 3.056814 7.615690 -6.829468 -0.722837 -2.446786 6.951410 3.229356 3.493951 -3.758931 7.351336 -10.671486 -8.305413 -11.249406 6.136137 2.799510 2.843087 1.173295 0.064435 -0.648392 -2.946354 3.568347 1.353580 -2.066937 -0.373333 -1.752327 -3.583265 -6.228049 3.384801 4.034766 1.289043 -29.373512 -12.808849 3.820615 -48.727385 -16.258889 10.859850 8.554119 -29.310676 -2.802437 -0.532107 -6.606617 7.880326 -11.707680 -2.877153 -11.519995 18.038534 8.637794 4.756792 35.423797 -8.418434 19.981267 16.458805 63.412183 33.209371 15.910446 8.078848 -6.113739 6.065375 4.909544 -3.119790 
-0.000981 0.000005 -0.002629 175.112649 25.353425 -14.694251 2.823895 0.431064 7.796883 -3.013162 -8.606350 -7.037478 -1.760903 6.204648 -1.684788 3.524360 8.265141 -7.825758 -0.911186 -2.186535 7.172500 3.257257 3.417093 -3.743342 7.212356 -11.008559 -8.344078 -10.911627 6.024140 3.312082 3.420577 0.672299 0.292088 -1.284387 -2.531035 3.663150 1.207632 -2.407634 -0.224899 -2.365293 -5.848906 -5.257124 3.498657 4.140029 2.310247 -29.299220 -12.572241 3.782980 -47.849058 -17.865069 11.786956 10.476434 -34.166557 -6.291426 -1.391430 -7.797872 6.577337 -10.735655 -0.952416 -11.741197 16.365768 7.826585 4.966184 33.412892 -12.103339 21.046599 26.413314 66.275980 36.728708 18.788225 13.197316 -21.068278 3.447605 2.581976 -0.974537 
-0.002041 0.000188 -0.003751 175.286129 24.904043 -14.996039 2.690029 0.808431 8.397004 -2.928429 -8.883707 -7.290129 -2.168446 6.596753 -1.541586 3.816741 8.310015 -8.507641 -1.094475 -1.993821 7.583971 3.249656 4.012181 -3.863620 8.018138 -11.707811 -8.520528 -12.259523 7.288745 2.773606 3.785965 0.181304 0.518811 -0.900125 -2.817483 3.632382 1.191348 -2.987036 0.483329 -3.155742 -5.076323 -4.130664 2.072716 3.814829 3.673669 -29.441489 -10.727033 4.339018 -47.262086 -16.622363 11.367435 7.922497 -33.464089 -4.695144 1.696693 -8.290705 5.792809 -10.645408 -1.141569 -12.532771 17.357997 5.332966 5.528755 33.109533 -15.218459 21.794561 28.460432 67.406716 36.387712 9.382389 13.712286 -26.505847 5.858580 2.560719 -2.037629 
-0.003660 0.000469 -0.005405 175.820312 23.757267 -14.838597 2.358586 1.574950 8.594791 -2.940547 -8.893982 -7.284438 -2.783906 7.086247 -1.499339 4.822107 8.185064 -9.163826 -1.437668 -1.565654 7.309866 3.125780 4.940853 -3.497329 9.114204 -12.146191 -8.889307 -14.509067 8.124250 1.838268 4.526341 -0.459986 0.794611 -0.422559 -3.438587 3.235705 1.076191 -3.714078 1.401923 -4.050576 -3.293257 -2.804533 0.162948 4.881498 5.594654 -29.633826 -8.180418 4.700885 -47.151348 -13.077615 9.615827 4.914446 -27.282142 -2.882431 1.463328 -7.809609 7.445092 -11.491690 -1.668670 -14.867941 17.684117 1.946075 5.151666 33.347824 -18.137006 22.053664 30.961280 70.864787 38.993545 5.126425 13.659134 -28.896778 8.065362 2.823947 -3.112095 
-0.005379 0.000358 -0.008193 176.385197 21.952595 -14.859119 2.135877 2.714715 8.977350 -2.974960 -9.006693 -7.263012 -3.368145 7.723125 -1.451945 5.774489 8.162325 -9.841732 -1.729398 -1.154066 7.108235 2.939930 6.267922 -3.147395 10.304717 -12.501363 -9.048323 -16.986484 8.820616 0.458429 5.668621 -1.188216 1.497858 -0.269887 -3.910315 2.762978 0.924090 -4.284067 2.551232 -4.767780 -2.701804 -0.707060 -1.052495 6.123878 7.410489 -29.535265 -5.881866 5.007540 -47.815330 -9.209971 7.317295 2.635477 -18.871823 -2.911053 5.190924 -7.275672 9.882480 -12.355409 -2.261963 -17.565483 16.806921 -0.448661 4.750122 33.343164 -20.371791 22.503792 41.327311 74.087119 49.807972 -2.495727 13.787491 -31.019171 10.268601 3.029173 -4.071551 
-0.004993 0.000482 -0.010461 176.771444 19.893547 -15.057546 2.212091 3.849664 9.617078 -2.935597 -8.994055 -7.556380 -4.061717 8.593755 -1.631028 6.928701 7.910430 -10.156542 -1.673173 -0.223931 6.958849 2.879612 6.962588 -2.853143 10.251262 -12.282793 -8.915822 -17.038392 8.420938 0.176271 6.282803 -1.828014 2.433957 0.092617 -3.579494 2.108001 0.983595 -4.592895 3.410266 -4.706875 -3.757874 2.529816 -2.128070 4.997271 12.143170 -29.292018 -3.014763 5.741209 -49.204789 -6.898015 6.815963 1.014639 -12.917492 -3.795740 9.828701 -8.337857 9.815066 -12.130061 -1.209026 -20.042905 17.034601 -1.634058 5.219002 35.024595 -20.754971 23.361944 44.391093 73.340309 48.079871 -11.909732 14.402324 -45.099953 10.673348 1.332719 -3.497134 
